{"title":"Alice no Toge (2014) Complete (Hardsubbed) BANKAI","uid":10378245,"size":1809614446,"categoryP":"video","categoryS":"tv_shows","magnet":"?xt=urn:btih:a9609178820a4ba9bf1039dbd72749be5480ac9f&amp;dn=Alice+no+Toge+%282014%29+Complete+%28Hardsubbed%29+BANKAI&amp;tr=udp%3A%2F%2Ftracker.openbittorrent.com%3A80&amp;tr=udp%3A%2F%2Fopen.demonii.com%3A1337&amp;tr=udp%3A%2F%2Ftracker.coppersurfer.tk%3A6969&amp;tr=udp%3A%2F%2Fexodus.desync.com%3A6969","seeders":1,"leechers":1,"uploader":"8ankai","files":11,"time":1403035569,"description":"Alice no Toge (2014)\n &lt;a href=&quot;\nhttps://i.imgur.com/E5Qacn7.jpg&quot; rel=&quot;nofollow&quot; target=&quot;_NEW&quot;&gt;\nhttps://i.imgur.com/E5Qacn7.jpg&lt;/a&gt;\n\nINFO:\nTitle (romaji) : Alice no Toge\nFormat : Renzoku\nGenre : Suspense\nEpisodes : 10\nBroadcast network: TBS\nTheme song: Taiyo to Hana by Takahashi Yu\nEncoder : BANKAI  \nSubtitle : ENGLISH HARDSUBBED\n\n*English Subtitles by subie06\n*Raws by furransu\n\n\nCAST:\nUeno Juri as Mizuno Asumi\nKikuchi Asumi as young Asumi\nNakamura Aoi as Gendai Yuma\nOdagiri Joe as Nishimon Yusuke\nTanaka Naoki as Chihara Junichi\nOmi Toshinori as Hinata Makoto\nNakamura Baijaku as Mizuno Kazufumi\nFujiwara Norika as Date Risa\nMusaka Naomasa as Ebisu Masahito\nIwaki Koichi as Gendai Shuichi\nKuriyama Chiaki as Hoshino Miwa\nKunimura Jun as Arima Tsuyoshi\nTakeba Ryusei as Minegishi Kenta\nMashima Hidekazu as Osanai Takao\n\n\nSYNOPSIS:\nMizuno Asumi is a doctor at the University Hospital. Her only objective in life is to avenge the death of her father, a death caused by immoral and negligent doctors. She wants to reveal to the world their mistakes and corrupt behaviors, with the hope of preventing them from furthering their practise as doctors.\n\n\nVIDEO INFO:\nFormat : MPEG-4 \nFormat profile : Base Media \nCodec ID : isom \nFile size : 167 MiB \nDuration : 46mn 34s \nOverall bit rate mode : Variable \nOverall bit rate : 502 Kbps \n\nVideo \nFormat : AVC \nFormat/Info : Advanced Video Codec \nFormat profile : &lt;a class=&quot;__cf_email__&quot; href=&quot;/cdn-cgi/l/email-protection&quot; data-cfemail=&quot;d79fbeb0bf979be4f9e6&quot;&gt;[email&amp;#160;protected]&lt;/a&gt;&lt;script cf-hash='f9e31' type=&quot;text/javascript&quot;&gt;\n/* &lt;![CDATA[ */!function(){try{var t=&quot;currentScript&quot;in document?document.currentScript:function(){for(var t=document.getElementsByTagName(&quot;script&quot;),e=t.length;e--;)if(t[e].getAttribute(&quot;cf-hash&quot;))return t[e]}();if(t&amp;&amp;t.previousSibling){var e,r,n,i,c=t.previousSibling,a=c.getAttribute(&quot;data-cfemail&quot;);if(a){for(e=&quot;&quot;,r=parseInt(a.substr(0,2),16),n=2;a.length-n;n+=2)i=parseInt(a.substr(n,2),16)^r,e+=String.fromCharCode(i);e=document.createTextNode(e),c.parentNode.replaceChild(e,c)}}}catch(u){}}();/* ]]&gt; */&lt;/script&gt; \nFormat settings, CABAC : Yes \nFormat settings, ReFrames : 4 frames \nCodec ID : avc1 \nCodec ID/Info : Advanced Video Coding \nDuration : 46mn 34s \nBit rate : 306 Kbps \nMaximum bit rate : 1 740 Kbps \nWidth : 848 pixels \nHeight : 480 pixels \nDisplay aspect ratio : 16:9 \nFrame rate mode : Constant \nFrame rate : 29.970 fps \nColor space : YUV \nChroma subsampling : 4:2:0 \nBit depth : 8 bits \nScan type : Progressive \nBits/(Pixel*Frame) : 0.025 \nStream size : 102 MiB (61%) \n\nAudio \nFormat : AAC \nFormat/Info : Advanced Audio Codec \nFormat profile : LC \nCodec ID : 40 \nDuration : 46mn 34s \nBit rate mode : Variable \nBit rate : 192 Kbps \nMaximum bit rate : 222 Kbps \nChannel(s) : 2 channels \nChannel positions : Front: L R \nSampling rate : 44.1 KHz \nCompression mode : Lossy \nStream size : 64.0 MiB (38%) \n\n\nSCREENSHOT: &lt;a href=&quot;\nhttps://i.imgur.com/erbbzDi.jpg&quot; rel=&quot;nofollow&quot; target=&quot;_NEW&quot;&gt;\nhttps://i.imgur.com/erbbzDi.jpg&lt;/a&gt; &lt;a href=&quot;\nhttps://i.imgur.com/0BS2ZvU.jpg&quot; rel=&quot;nofollow&quot; target=&quot;_NEW&quot;&gt;\nhttps://i.imgur.com/0BS2ZvU.jpg&lt;/a&gt; &lt;a href=&quot;\nhttps://i.imgur.com/DeOGJAq.jpg&quot; rel=&quot;nofollow&quot; target=&quot;_NEW&quot;&gt;\nhttps://i.imgur.com/DeOGJAq.jpg&lt;/a&gt;\n\n\nEnjoy &amp; Please Seed!!","torrent":{"xt":"urn:btih:a9609178820a4ba9bf1039dbd72749be5480ac9f","amp;dn":"Alice+no+Toge+%282014%29+Complete+%28Hardsubbed%29+BANKAI","amp;tr":["udp%3A%2F%2Ftracker.openbittorrent.com%3A80","udp%3A%2F%2Fopen.demonii.com%3A1337","udp%3A%2F%2Ftracker.coppersurfer.tk%3A6969","udp%3A%2F%2Fexodus.desync.com%3A6969"],"infoHash":"a9609178820a4ba9bf1039dbd72749be5480ac9f","infoHashBuffer":{"type":"Buffer","data":[169,96,145,120,130,10,75,169,191,16,57,219,215,39,73,190,84,128,172,159]},"announce":[],"urlList":[]}}